<svg xmlns="http://www.w3.org/2000/svg" viewBox="0 0 86.4 94.4"><title>Artboard 4</title><path d="M7.2 94.4h72c4 0 7.2-3.2 7.2-7.2V45.5c0-1.9-.7-3.7-2-5l-9.2-9.7V15.1c0-2.2-1.8-4-4-4H56.4l-8.7-9.2c-2.4-2.5-6.3-2.6-8.8-.2l-.2.2-8.7 9.2H15.2c-2.2 0-4 1.8-4 4v15.7L2 40.5c-1.3 1.3-2 3.1-2 5v41.7c0 4 3.2 7.2 7.2 7.2zm12-75.3h48v35.4L46.1 71.4a4.53 4.53 0 0 1-5.8 0L19.2 54.3V19.1zm24.9 33.6H28.4c-1.6-.3-2.8-1.8-2.5-3.4.2-1.3 1.2-2.3 2.5-2.5h15.7c1.6-.3 3.2.9 3.4 2.5.3 1.6-.9 3.2-2.5 3.4-.3.1-.6.1-.9 0zM25.5 39.1c0-1.7 1.3-3 3-3H58c1.6-.3 3.2.9 3.4 2.5.3 1.6-.9 3.2-2.5 3.4H28.4c-1.6 0-2.9-1.3-2.9-2.9zm0-10.6c0-1.7 1.3-3 3-3H58c1.6-.3 3.2.9 3.4 2.5.3 1.6-.9 3.2-2.5 3.4H28.4c-1.6 0-2.9-1.3-2.9-2.9z"/></svg>