<?xml version="1.0" encoding="utf-8"?>
<!-- Generator: Adobe Illustrator 20.1.0, SVG Export Plug-In . SVG Version: 6.00 Build 0)  -->
<svg version="1.1" id="Layer_1" xmlns="http://www.w3.org/2000/svg" xmlns:xlink="http://www.w3.org/1999/xlink" x="0px" y="0px"
	 viewBox="0 0 414.1 492" style="enable-background:new 0 0 414.1 492;" xml:space="preserve">
<style type="text/css">
	.st0{fill:#ECD8B3;stroke:#4C3A22;stroke-width:7;stroke-miterlimit:10;}
	.st1{fill:#FFD65A;}
	.st2{fill:#F4B52D;}
	.st3{fill:#1D6EAD;}
	.st4{fill:#FFFFFF;}
	.st5{fill:#FDEC02;}
	.st6{fill:none;stroke:#4C3A22;stroke-width:7;stroke-miterlimit:10;}
	.st7{fill:#5F4D3B;}
</style>
<path id="Sheild" class="st0" d="M211,3.5h151c0,0,48.2,4.8,48.5,45.8s0,244.5,0,244.5s-28.3,194.8-192.7,194.8S3.5,335.7,3.5,290.3
	V52C3.5,52,16,3.5,62.3,3.5H211z"/>
<path id="Sky" class="st1" d="M42,121v183l11.5,9L372,276.7V121H42"/>
<path id="Mountains" class="st2" d="M371,274.6l-85.5-34.3c0,0-7.9-4.8-15.9-4.8s-90.2,51.7-90.2,51.7s-4.7,3.7-26.2-2.5
	s-29.2-9.8-34-9.8s-72.2,32-72.2,32l6.3,23.1H361l10-38V274.6L371,274.6z"/>
<g id="Water">
	<path id="background" class="st3" d="M53,329h311.8c0,0-34.1,114.3-155.9,114.3S53,329,53,329z"/>
	<g id="Bubbles">
		<ellipse class="st4" cx="162.1" cy="413.8" rx="2" ry="2.2"/>
		<ellipse class="st4" cx="335.9" cy="364.6" rx="1.4" ry="1.3"/>
		<ellipse class="st4" cx="328.8" cy="368.6" rx="1.2" ry="1.3"/>
		<circle class="st4" cx="328.2" cy="359.5" r="1.6"/>
		<ellipse class="st4" cx="335.3" cy="355" rx="1" ry="1"/>
		<ellipse class="st4" cx="333.5" cy="347.7" rx="2.4" ry="2.4"/>
		<circle class="st4" cx="282.3" cy="393.1" r="1.4"/>
		<ellipse class="st4" cx="225.5" cy="378.5" rx="2.4" ry="2.5"/>
		<ellipse class="st4" cx="200.3" cy="384.4" rx="3" ry="2.9"/>
		<ellipse class="st4" cx="189.4" cy="393.7" rx="2.6" ry="2.8"/>
		<ellipse class="st4" cx="176.1" cy="389.6" rx="3.7" ry="3.5"/>
		<ellipse class="st4" cx="163.9" cy="402.1" rx="2.4" ry="2.6"/>
	</g>
	<path id="swoosh" class="st4" d="M73,367h126c0,0,16.7,1.3,21.7-2s10-6.7,4-10s-40.3-10.7-44.3-12.3c-4-1.7-5-2.3-4-4
		s32.1-0.7,32.1-0.7H361l0.9-4H170c0,0-10.6-0.5-13.5,1.5s-2.4,4.2,1.6,5.5s36.1,10.4,36.1,10.4s6.1,2.6,4.8,4.4s-2.6,2.4-12.1,2.2
		s-119.5-0.1-119.5-0.1L73,367z"/>
</g>
<g id="Fish">
	<path id="BlueFish" class="st3" d="M274.2,281.7c0,0,2.8-8.5,5-13.2s6.3-13,7.5-14.2s1.4-2.1,2.8-2.4c1.9-0.4,3.4,0.6,4.4,2.6
		c1,2.1,0.8,5.4,1.8,7s2.1,3.7,2.8,3.7s1.6-0.5,1.9-2.6s0.7-4.4,1.2-6.9c0.6-2.5,2.3-2.3,2.9-2.3c0.4,0,2.1,0.5,3.5,4.1
		c1.4,3.6,4.8,11.1,5.6,14.4s1.7,7.3,1.7,9.9s1.4,7.9,1.6,11.1s1,9.4,2.1,12.2s3.9,9.4,4.6,12.4s0.9,5.4-0.4,6.2s-3.4,2.2-5.1,0.9
		s-0.3-2.5-0.2-3.2c0.1-0.7,0.5-1.8,0-1.7c-0.5,0.1-1.8-0.9-0.5-2.5c0.6-0.8-0.1-2.3-0.5-2.5s-1-0.4-0.9-1.3s0.5-0.2,0.9-1
		c0.4-0.7-0.1-0.8-0.6-1.5c-0.5-0.6-1-1.8-0.6-2.1c0.4-0.4,0.7-1.5,0-1.5c-0.7-0.1-1.3-0.4-1.8,0.5c-0.5,1-0.4,1.9-0.1,2.5
		c0.3,0.5,0.5,2.4,0.3,3.1c-0.2,0.6,0.5,1.1,0.4,1.7c0,0.6-1,1.4-0.3,1.8s0.4,1.8-0.1,2.2c-0.5,0.4-0.8,0.9-0.8,2.9
		s-0.8,12.9-1.4,13.4s-1.5,1.1-1.2,2s0.6,2,0.9,2.3c0.4,0.2,1.1,2.3,0.3,2.3s-2.7,0.4-2,0.8s1.4,0.6,0.4,0.9s-2.1,1-1.6,1.5
		s1.2,0.8,1.1,1.4s0,2.7-1,2c-1-0.6-0.6-1-0.9-1.6s-1.1-0.9-1.1,0s1.1,2,0.3,2.6c-0.9,0.6-2.7,0-3.1-0.5s-0.9-1.8-0.2-2.2
		c0.7-0.4,1-1.4,0.5-1.9s-0.5-1.1-0.3-1.7s0.7-1.6,0-1.6s-1.4,0.4-1.3,1.4s-1.4,1.4-2,0.4s-0.7-2.5,0.2-2.9s1.9-1.6,1.3-2.5
		s-2-1.4-2-2.6s-0.3-2.5,0.5-2.5s1.7-0.9,1.4-1.9c-0.3-1-0.5-1.1-1-1.6c-0.4-0.4-1.3-0.7-1.3,0.2c0,0.9,0.4,1.6,0.1,2.1
		s-0.3,1.3-0.9,1.5s-1.8,0.6-1.8-0.9s0.1-1.6,0.5-1.8s0.5-0.9,0-1s-3.4,0.1-3.3-0.6s-1-1.2-1.1-2s2-0.7,1.8-1.7
		c-0.2-0.7-0.7-3.8-1.5-6.3s-4.6-5.7-4-8.2c0.3-1.1-0.8,0.2-1,1.6s-1.7,2-1.3,2.7s1.6,0.4,1.9,1.5c0.4,1.1-1.4,1.7-2,1.8
		c-1.2,0.1-1-0.7-0.8-1.9c0.1-0.7-1.2,0.7-1.8,1c-0.6,0.3-0.1-2-0.7-2.4c-0.1-0.1-0.6,0.2-1,0.8s-1-0.5-1.9-0.4c-0.7,0-1.5,0-1.4,1
		s0.7,2,0,2.7c-0.7,0.6-2.3,1.6-1.9,2.5c0.3,0.6,0.2-0.5,2-0.6s1,1.2,2.2,0.3c0.7-0.6,1.6,0,1-0.5c-2.8-1.8-1.8-2.9-1.1-3.2
		c0.6-0.2,2.6,1.6,2.9,2.3c0.3,0.7,0.8,2.7,0.6,3.2s-0.2,0.4-2.1,0.6c-1.9,0.1-1.6,0-2.2,1.7s-4.3,1.7-4.5,2.3
		c-0.2,0.6-0.5,0.8,0.1,1.4s0.9,1.4,0.5,1.9c0,0-1.2,0-1.3,0.9c-0.1,1,0.5,4.8,0,5.4s-2.5,0.9-2.1,1.4s1.1,0.6,1.1,1.4
		s-0.6,1.2-0.8,2.5c-0.3,1.3,0.4,3.5,0,4.2s-1.4,0.9-1.6,0.7c-0.3-0.3,0-1,0.2-1.8s0.2-1-0.5-1.1c-0.7-0.2-1.8-0.1-1.6,1.1
		c0.2,1.1-0.2,2.5,0.7,2.8c0.8,0.3,2.1,0.1,1.6,0.6c-0.4,0.5-1.5,0.2-1.7,0.8c-0.2,0.6,0.4,2.8-0.2,2.9s-0.9-0.9-1-2
		c-0.1-1-1.3-0.9-1.3-0.2s-0.7,1.5-0.7,2s2,0.7,2,1.2s-1.2,3.1-2,3.6s-0.8,0.9-0.9,1.6c0,0.6-0.4,1.5-1.4,0.2
		c-1.1-1.2-1.3,2.7-1.2,3.4c0,0.8,0.8,1.9-0.6,3.6s-1.2,1.2-0.9,1.9c0.3,0.6-0.2,1.3-0.8,1.5s-0.8,0.3-0.8,0.8s1.3,0.8,0.7,1.6
		s-1.3,0.1-2.4,0.8s-1,2-2,2.9s-0.1,1.8-1.2,2.2s-2.5,1.2-2.5,0s0.1-1.9,1.4-3.2s2.7-2.5,2.7-3.6s-0.3-1.9,1-2.1s1.8-2.4,1.4-3.7
		s-0.3-1.6,0.7-2.6s0-1.8,0.6-2.2s0.8-1.4,1.6-2.2s1.2-2.6,0.5-3.2s-1.5-1.8-0.8-2.2s1.6,0.5,2.1,0.1s-0.5-1,0-1.1s1.8-0.5,1.4-0.9
		s-2.3-0.1-2.4-0.7s-0.2-2,0.9-1.9s1.1-0.7,1.1-1.8s-0.2-1.9-1-2s-1.6-1.5-0.3-1.4s1.8-0.4,2.4-0.8s1.2-1.3,0.7-1.5
		s-0.8,0.6-1.2,0.3s-1.2-0.7-0.7-1.4s1-1,1.3-0.4s1.5,0.3,1.3-0.5s-1.3-1.5-0.4-1.9s1.8-1.7,0.6-1.7s-1.1-0.4-0.5-0.9
		s1.9-1.8,1.7-2.3s-0.9-3.8-0.9-5.4s-0.4-13.3,0.9-23.8S274.2,281.7,274.2,281.7L274.2,281.7z"/>
	<path id="WhiteFish" class="st4" d="M152.4,430.8c0,0,8.3-0.2,11.5-1s5.7-2.9,5.7-4.2s0-3.1-1-3.1s-1.6,1.5-1.6,1.8
		s-2.3-0.1-2.1-2.8s2-3.9,2.8-4.1s2.6-0.4,3.6,0.4s2.2,1.8,2.2,2.6c-0.1,0.8-0.1,1.8-0.8,2.3s0.2,1.3,1.4,0.9s1.5-1,1.9-3
		s1.4-2,2-1.6s2,1,2,1.8c-0.1,0.9,0,1.5,0.9,1.2c0.8-0.3,1.9-1.5,1.5-2.1s-1.2-2.1-0.2-2.6c0.9-0.5,2.1-0.5,2.7,0.5s1,2.4,1.8,2
		c0.8-0.3,2.7-1.6,2.1-2.6c-0.6-1-1.3-1.1-2.3-1.2s-0.8-1.8-0.5-2.5s1.6-1.5,2.9-1s2.7,1.6,3.3,3s0.9,3,2.2,3s3.2,0.7,3.6-0.2
		c0.3-1-1.9-4.8-3.5-6.2c-1.6-1.5-5-7-4.9-8.9s0.9-3.1,1.8-3.7c1-0.7,6.1-1.4,7.8-1.4s11.3,0.3,14.5,1.3s3.3,1.5,5.7,1.2
		c2.3-0.3,8.6-2.3,10.1-3.3s1.7-1.7,1.5-2.2s-1.8-1.7-0.7-2.5s5-1.4,7.1-2.9s9.4-7.1,13.9-13.6s7-10.3,6.8-12.1s-3.2-10.3-3.2-13.3
		c0-2.9-0.2-5.2,0.5-6.7s10.7-9.7,11.2-10.4s0.8-1.5,1.1-2s0.8-1.1,1.2-0.7s0.8,1.5,0.4,2.3s-1.9,1.7-1.5,2s1.3-0.1,1.5,0.3
		s0.3,1.6-0.2,1.8s-1.2,0.9-1.2,1.6s0.2,1-0.5,0.9s-1.6,0-1.3,0.4s1.1,0.8,1.6,0.6s1,0.5,0.5,0.9s-0.9,0.4-1.8,1.2s-1.8,0.2-1.9,1
		s1.4,0.3,1.6,1s0.4,0.5,0.4,1.4s-0.5,2.5-1,2.7s-1.6,1.1-0.4,1.3c1.2,0.2,1.6,1.1,1.3,1.3s-0.9,0.9-1.8,1.1
		c-0.9,0.1-1.9,0.9-1.4,1.5s1,1.5,0.9,2.2c-0.1,0.6-0.6,2.9-1.2,4s-1.9,3.3-2.4,3.6s-0.6,0.6-0.5,1.3s0.6,2.7,0.1,3.2
		s-1.9,1.1-2.2,1.8c-0.2,0.7-0.3,2.2-1.2,3.3c-0.9,1.1-1.3,2.5-2.1,3.1c-0.9,0.6-1.1,1.2-0.7,1.6s1.2,0.7,2-0.1
		c0.8-0.8,0.7-2,1.2-2.8s1.2-0.5,1.6-1c0.5-0.5-0.2-1.5,0.2-1.6c0.5-0.1,2.2,0,2.3-0.6c0-0.6-0.6-2,0.2-2.3c0.8-0.4,1.9,0.4,2.1-0.2
		c0.3-0.6-1-1.6-0.4-2.5s2-1.5,2-2.3s-0.8-3.1-0.6-3.8c0.2-0.7,0.3-1.4,0.8-1.4s0.4,0.6,0.8,1s1,0.2,1-1s0.8-3,1.3-3.8
		c0.6-0.7,1.7-1.3,1.3-2s-1.6,0-1.6-0.9c0-1,0.2-1.9,1-2s0.7,1,0.9,1.4s0.9,1.1,1.1,0.3c0.2-0.8-0.4-2-0.1-2.4s1.2,0.3,1.8-0.4
		s0.5-1.2-0.2-1.3s-1.8-0.4-1.8-1.5s0.1-2.3,0.8-2.3s1.2,0,1.1,0.8s-0.1,1.1-0.4,1.3s-0.4,0.8,0.8,0.8s1.1-1.6,1.1-2.5
		s0.4-2.8,0.8-3.3s0.6-1.2,0-1.9s-0.5-1,0.1-1.8s0.4-4.3,0.8-5.6s1.1-0.4,1.4-1s0.7-1.8,0-1.9s-0.7-0.8-0.4-1.3s0-1.3,0.6-1.5
		s1.5,0.5,1.8,0s-0.5-1,0-1.4s1.9-0.1,2-0.6s0.8-0.9,1.6-0.8s1.2-0.2,1.6,0s1.1-0.2,1-1s-0.2-2.1-0.9-2.8s-1.2-1.9-1.9-1.9
		s-1.5,0.1-1.2,0.8s0.2,1,1,1.3s1.4,1.2,0.9,1.2s-0.7-0.2-1,0.1s-0.2,1.1-0.8,0.9s-0.9-1.1-1.5-1.1s-0.4,0.9-0.9,1.2s-2,0.3-1.5-0.9
		s1.1-2.1,1.8-2.1s0.7-1.8,0.4-2.5s-0.1-1.2,0.5-1.4s1.6-0.4,1.9,0s0.7,0.5,0.8,0.1s0.4-1.4,0.9-0.9s0.7,1.1,0.6,1.8s1,0.8,1.2,0.1
		s1-0.8,1.1-0.4s0.6,0.9,0,1.3s-0.4,0.7,0.3,0.9c0.7,0.2,0.8-0.8,1.4-0.8s1-0.2,0.5-0.9s-1.4-0.4-1.7-1.5s0-1.2,0.5-1.7
		s1.1-1.6,0.5-2s-0.8,0.6-1.3,0.9s-2.8,0.5-3.8,0.7s-2.5,0.1-2.5-0.5s0.7-1.2,0.5-1.5s-2-0.1-1.9-0.7s0.3-1.6,1-1.9s2.2-0.8,2.2,0.2
		s-0.9,1.1-0.4,1.6s0.3,0.8,1.9,1s2.7,0.3,3.2-0.4s1.2-1.1,2.1-0.8c0.9,0.2,1.6,1.9,1.3,2.7s0,1.2,0.5,1.1s1.8-0.1,1.5,1
		s0.2,1.4,0.8,1.6s0.8,0.9,0.4,1.5s-0.2,1.5,0.5,1.5s1.4,0.5,1.2,2.1s-0.8,3.5-0.4,3.7s1.5,0.5,1.5,1s0.2,0.9-0.3,1.1
		s-1.2-0.1-1.5-0.5s-1.4-0.1-0.8,0.7s-0.1,1.4,1.2,1.4s2.2,0.3,2.6,0.8s-0.1,1-0.6,1s-0.5,1.3-0.1,1.9s1.1,0.8,1.8,0.3
		s1.2-1.2,1.1-1.9s-0.3-2,0.3-2.1s1.1,0.3,1.5,0.8s0.9,2.2,0.5,2.5s-1.6,0.5-1.7,1.3s-0.5,2.7,0.5,3.3s1.6,0.6,1.4,1.7
		s-0.4,1.9-1.2,2.3s-1.1,1.1-0.8,1.6s1.8,1.6,2.2,1.2s0.2-1.6,0.8-1.8s1.2,0.1,1.1,0.8s-1.2,1.3-1,1.6s1.7,0.3,1.3,0.8
		s0.2,1.7-0.4,1.9s-1.9,0.6-2,1.3s-0.4,1.4-0.2,2s0.9,1.6,1,0.6s0.5-2.2,1-1.7s0.6,1,0.6,1.4s0.2,1.4-0.2,1.6
		c-0.4,0.2-1.6,0.7-1.4,1.2s0.6,1.5,1.4,0.7c0.7-0.8,1.2-1.5,1.8-1.5c0.7,0,1.4-0.1,1.8,0.1s0.8,0.9,0.2,1.2c-0.6,0.3-2,0.6-2,1.2
		s-0.4,1.7,0,2.2c0.5,0.6,0.9,1,1.6,0.8s0.9-0.8,0.6-1.4c-0.2-0.5-1.5-0.4-1.1-0.8s1.7-1.7,2.2-1.7s0.9-0.7,0.6-1
		c-0.2-0.3-1.1-0.9-1.1-1.4c0-0.4-0.5-1.1-1-1.1s-1.3,0-1.3-0.6c0-0.7,1.1-0.6,0.9-1.1s-0.9-2-0.2-2.1c0.6-0.1,0.9,0.9,1.1,1.8
		c0.1,0.9,0.5,1,1,1c0.4-0.1,0.7-0.2,0.7-1.1c0-1-0.5-1.1,0.1-1.5s1.2-0.1,1-1s0.1-1-0.5-1c-0.6-0.1-0.8,1.2-1.3,0.9
		c-0.6-0.4-1.2-1.4-0.7-1.9s1.4-0.8,2-0.6c0.6,0.2,1,1,1.2,0.1c0.1-0.8,0.8-2.7,0.1-3.6c-0.6-1-1.4-0.8-1.4-1.8s0-2,0.9-2.4
		c0.9-0.3,0.9-4.4,0.7-5.1c-0.2-0.7-0.5-9.3,0.7-10.2c1.1-0.9,0.9-3.1,0.9-5.5s-0.1-4.4-0.5-5.1s-0.1-2.2,0.6-2.7s2.3,0,2.3,0.6
		s-1,1.9-0.5,2.4c0.5,0.6,1.6,1.9,1.3,2.4c-0.4,0.5-1.5,1.3-0.6,1.9s1.7,1,1.2,2.3c-0.5,1.2-1.2,2.3-0.4,2.6
		c0.8,0.3,1.7,0.9,1.2,1.6s-1.5,2.7-1.4,3.7c0,1-1.2,6.9-1,8.1s-0.5,4.7-0.8,7s-1.7,7.7-1.8,10.2s-0.2,7.3,0.2,10.2s2,7.2,1.4,8.9
		c-0.6,1.7-1.6,3.8-3.3,3.8s-4.2-0.5-4.8-1.2s-1.3-0.8-2,0.7s-3,5-7.2,8.6s-5.3,4.5-10.7,6.7s-6.8,2-9.5,4.2s-3.6,6.6-5.5,8.7
		s-5,6.9-7.3,5.7s-3-3.9-3.3-5.6s-0.9-1.8-2.1-1.8s-3.5-0.2-6.2,3.1s-3.7,4.7-2.9,8.8s1.6,3.6,2,3.1s-0.8-3.2,0.5-4.7
		s1.8-2.3,3.3-1.8s3.1,0.8,2.4,1.6s-3.2,1.2-2.3,2c0.9,0.8,2.4,1.9,3.7,0.8s2.4-2.2,4.1-2.5s2.8-0.5,3,0.3s0.8,1.3-0.3,1.5
		s-1.6,0.7-1.2,1.2s3.2,1.5,4.6-1.3s1.7-3.9,3.2-3.2s2.6,1.2,2.7-0.2s-2.5-2.9-1.3-4.6s1.8-4.1,4.1-4.1s3.2,0.9,2.9,2.1
		s-1.9,1.8-1.4,2.9s1,2.8,3,2.8s5-2,5-3.5s-0.5-3.3-1.3-5s1.6-5.8,3.5-6.3s4.8-0.4,4.9,1.4s-1.4,2.1-2.1,2.8s0.2,2.3,1.5,2.8
		s2.9-0.1,3.8-1.5s2.1-2.9,1.1-4.2s-1.7-3.4-1.1-4.9s1.9-3,3.5-2.5s0,2.9,1.1,3.6s3.6,1.1,4.4-1.2s0.5-4.6,3.4-7s4.3-1.3,4.2-0.4
		s-1.8,2.2-0.8,2.8s2.2,1.1,2.8-0.9s1.4-3.7,3.4-3.6s3.1,1.8,2,2.4s-3.2,1.8-2.2,2.6s0.9,1.3,3,1.3s2.3-2.2,3-4s1.1-3,2.8-3.3
		s3.4,0,3.2,1.9s-0.2,2.8-1.8,3s1.6,3.2,1.6,3.2l-8.1,10.9l-28,23l-34,15.5l-34.8,8h-33l-33.9-7.1L152.4,430.8L152.4,430.8z"/>
	<g id="GillEyeLip">
		<path class="st4" d="M302.4,255.8c0,0,0.8,0,0.9,1c0.1,1-0.2,2.8-0.3,4.1c0,1.4-0.4,3.6-0.6,4.8s0.1,2.7-0.5,2.9s-1.7,0.7-2.3-0.6
			s0-1.6,0.3-2.4s1.7-5.5,1.8-6.7s-0.1-2.2,0.1-2.6S302.4,255.8,302.4,255.8L302.4,255.8z M299.7,300.6c0,0,5.3-0.4,6.8-1.8
			s4.2-4.2,5.2-8.5s1-4.5,1.6-4.2s1.1,1.5,1.3,3.6c0.3,3.2-0.9,6.7-2.5,7.9s-4,3.1-6.6,3.7c-1.2,0.3-4.2,0.4-4.7,0.1
			S299.7,300.6,299.7,300.6L299.7,300.6z"/>
		<ellipse class="st4" cx="287.8" cy="271.7" rx="2.2" ry="2.6"/>
	</g>
</g>
<g id="Splash">
	<path class="st3" d="M280.5,338.7c0,0,0.5-0.5,0.3-0.6s-1-0.1-0.8,0.2C280.2,338.5,280.5,338.7,280.5,338.7z M279.4,332.8
		c0,0-1.3-0.5-1.4-0.2c0,0.4,0,1.2,0.3,1.1S279.4,332.8,279.4,332.8z M301.8,345.6c0,0-0.7,0.5-1.1,0.5s-1.8-0.4-1.3,0
		c0.6,0.4,1,0.9,1.4,0.9s2.2-0.8,1.9-1S301.8,345.6,301.8,345.6z M298,342.2c0,0,0.4,0.8-0.4,0.8s-0.8-1.3-0.3-1.2
		C297.8,341.9,298,342.2,298,342.2L298,342.2z M265.4,341.2c0,0,0-1.3,0.8-1.3c0.8-0.1,1,2.1,0.5,1.9S265.4,341.2,265.4,341.2z
		 M263.3,343.2c0,0-1.4-2.1-0.4-1.9C263.9,341.4,263.3,343.2,263.3,343.2z M257.7,347.7c0,0,1.8,0.6,1.9,0s-0.4-1.6-0.9-1
		C258.1,347.2,257.7,347.7,257.7,347.7z M258.9,352.5c0,0-0.4-1.2,0.4-0.9c0.8,0.3,1.4,0.9,0.5,0.9H258.9z M285,383.8
		c0,0,0.4-0.2,0.8,0c0.3,0.2,1.3,0.9,0.6,1.2c-0.7,0.2-1.4-0.6-1.4-0.6V383.8z M286.8,379.7c0,0,0.3-1.5-0.4-1.2s-0.7,1-0.6,1.2
		S286.8,379.7,286.8,379.7z M212.4,406.8c0,0,0.6-0.4,0.3-0.8s-1-0.5-1,0S212.4,406.8,212.4,406.8z M215.4,402.8c0,0-0.2,0.7,0,0.7
		s1,0.8,1,0.2c0-0.6-0.1-1.2-0.6-1.1S215.4,402.8,215.4,402.8L215.4,402.8z M201.1,414.8c0,0-0.1,0.7,0.9,0.2c1-0.4,1-0.2,1.1-1
		s0.6-1.5,0-1.4s-1.5-0.5-1.1-0.8s2.1-0.2,2.1,0.8s0.5,1.6,0,1.9s-0.7,1.1-1.4,1.2c-0.7,0-2.2,0-2.1-0.3
		C200.6,415,201.1,414.8,201.1,414.8L201.1,414.8z M200.8,413.1c0,0,0.2-1.3-0.3-1.3c-0.6,0-1,1.2-0.6,1.8S200.8,413.1,200.8,413.1
		L200.8,413.1z M209,420c0,0-0.3-1,0-1s1.2,0.3,1.1,0.8c-0.1,0.5-0.7,1.2-0.9,0.7L209,420L209,420z M206,420.2c0,0-0.6-2-0.2-2
		c0.4,0,1.4,0.1,1.4,0.8c0,0.7,0.3,1.6-0.3,1.7S206,420.2,206,420.2z M215.5,405.7c0,0-1-0.6-0.8-0.8c0.2-0.2,1.1-0.9,1.5-0.4
		s1.1,0.8,0.6,0.8C216.2,405.3,215.5,405.7,215.5,405.7z M219.5,403.7c0,0-0.8-0.4-1.3,0.1c-0.5,0.6-0.5,1.6,0,1.9s1.2-0.2,0.9,0.5
		s-0.4,1.3,0,1.5c0.3,0.2,2-0.5,1.8-1.3s0.6-1.7,0.8-1.5s1.5-0.4,1.5,0.2s0.1,1.4,0.8,1.4s1.6-1.2,0.9-1.6s-1.7-0.3-1.7-1
		s0.3-1.8-0.5-1.7c-0.8,0.2-1.3-0.1-1.4,0.9c0,1-1.1,1.2-1.4,0.9L219.5,403.7L219.5,403.7z M226.2,401.1c0,0,0.2,0.5,0.7,0.7
		s1.4,0.1,1.4-0.4s-0.6-0.9-1-0.9S226.2,401.1,226.2,401.1L226.2,401.1z M226.9,404.7c0,0,0.2,0.3,0.8-0.4c0.6-0.7,0.6-1.6,0.2-1.7
		s-0.8,0.1-1,0.5S226.9,404.7,226.9,404.7z M233.4,399.2c0,0,1-0.6,0.8-0.9s-0.9-0.8-1.4-0.5s-1,0.4-0.8,1
		C232.1,399.4,233.4,399.2,233.4,399.2z M230.4,400.9c0,0-0.8-0.8-0.6-1.2c0.2-0.4,0.6-0.8,0.8-0.2
		C230.8,400.1,231,400.8,230.4,400.9L230.4,400.9z M236,395.5c0,0-1.4-0.4-1-0.8s1.4-0.7,1-0.8c-0.5-0.2-1.5-0.5-1-0.8
		s2.3-0.5,2.3-0.2s0.2,1.6-0.3,1.8c-0.5,0.2-0.2,1.1-0.2,1.1L236,395.5L236,395.5z M250.4,383c0,0-0.9-0.4-0.7-0.9s0.3-0.1,0.7-0.5
		c0.5-0.4,0.2-0.9,0.4-1s2,0.3,2,0s-0.1-0.8,0.3-0.8c0.5,0,0.6-0.5,0.5,0.2s0.3,1.1-0.6,1.3c-0.9,0.3-1.6,0.2-2,0.7
		S250.4,383,250.4,383L250.4,383z M284.6,381.2c0,0,0.2-0.3,0.3-0.5s0.9,0,0.8,0.3c-0.1,0.2-0.5,0.5-0.8,0.4L284.6,381.2
		L284.6,381.2z M299.5,353.4c0,0,0.6-0.2,0.8,0s0.6-0.4,0.5-0.4C300.5,352.9,299.5,353.4,299.5,353.4z M288.4,349.1
		c-0.3-0.1-0.4-0.5-0.4-0.5s0.2-0.6,0.4-0.4s0.4,0.3,0.4,0.5C288.7,348.7,288.4,349.1,288.4,349.1z M296.8,339.2
		c0,0-0.3,0.6-0.9,0.3c-0.7-0.3-0.5-1,0-1C296.5,338.5,296.8,339.2,296.8,339.2z M289.1,326.8c0,0-1-0.1-1,0.4s0.1,1.1,0.3,1.2
		c0.2,0.1,0.5-0.4,0.5-0.5S289.1,326.8,289.1,326.8z M286.6,320.7c0,0,0.8-0.6,0.2-0.7c-0.5-0.1-1.4-0.5-1,0
		C286.2,320.4,286.6,320.7,286.6,320.7z M291.2,320.8c0,0-0.2-0.3,0.2-0.4c0.3-0.1,0.8,0.2,0.4,0.4
		C291.4,321.1,291.2,320.8,291.2,320.8z M289.8,320.5c0,0,0.5,1.1,0,1.1s-1.3-0.9-0.7-1.1C289.7,320.3,289.8,320.5,289.8,320.5z
		 M291.2,319c0,0-0.2-0.7-0.5-0.5s-1.2,0.6-0.9,0.9c0.2,0.3,0.8,0.1,0.9,0S291.2,319,291.2,319z M290,317v-1c1,0,1-0.5,0.7,0.3
		S290,317,290,317z M287.7,322.1c0,0,0,0.9-0.6,0.4c-0.5-0.5-0.3-1.4,0.1-1.1S287.7,322.1,287.7,322.1z M289,324
		c-0.7,0-1.9,0.1-1.8,0.5s-0.4,0.8,0.3,0.8s1.4,0.5,1.5,0S289,324,289,324z M280.8,329.3c0,0-0.2-0.9-0.8-0.7
		c-0.5,0.2-1,0.2-1.1,0.9c-0.1,0.7,0,1.1,0,1.1l0.9-1L280.8,329.3z M280.3,336.5c0,0-1,1.1-1.2,0.6s-0.2-1.1,0.3-1
		S280.3,336.5,280.3,336.5L280.3,336.5z M284.4,335.4c0,0-0.3-1,0.4-0.9c0.7,0,1.3,0,0.9,0.5C285.4,335.4,284.4,335.4,284.4,335.4z
		 M289.3,332.2c0,0,1.1,0.5,0.9,0S289.3,332.2,289.3,332.2z M287.5,330.7c0,0-1,0.7-0.3,0.7S287.5,330.7,287.5,330.7z M281.4,328
		c0,0-0.8-1.2-0.2-1.2c0.5,0,1.4,0,1.2,0.3S281.4,328,281.4,328L281.4,328z M280,334.5c0,0-1.2,0.6-1.2,0s0.1-1,0.8-0.7
		C280.2,334,280,334.5,280,334.5L280,334.5z M277.9,336.5c0,0-1.1,0.6-1,0s0.2-1,0.8-0.8S277.9,336.5,277.9,336.5z M282.2,333
		c0,0-2.3-0.2-1.8,0.4c0.6,0.7,0.7,1.1,1.4,1s1.2,0.2,1.2-0.4C283.1,333.5,282.2,333,282.2,333L282.2,333z M283,329.4
		c0,0-0.5-0.5,0-0.6s0.6-0.5,0.8-0.8c0.2-0.3,1.2-0.3,1,0.4c-0.2,0.7-0.8,0.7-1.2,1S283,329.4,283,329.4L283,329.4z M294.5,343.4
		c0,0-0.6-0.4-0.6-0.7s0.6-0.9,0.9-0.9s0.6,0.8,0.4,0.8S294.5,343.4,294.5,343.4L294.5,343.4z M299.1,345.4c0,0-0.5,0-0.3-0.6
		c0.1-0.6,1-0.5,1,0C299.7,345.4,299.1,345.4,299.1,345.4z M298.2,337.7c0,0,0.6-0.7,0.6-1.3c-0.1-0.7,0.2-2-0.3-1.9s-0.5,0.7-0.7,1
		s0.2,1.5-0.6,1s-0.9-1.6-1.3-1.8c-0.5-0.2-1.4,0.5-0.9,0.9s1.2,0.6,1.1,1.2c-0.2,0.6,0,0.7,0.6,0.9c0.5,0.2,0.3,0.3,0.7,0.6
		s1.3,0.4,1.6,0S298.2,337.7,298.2,337.7L298.2,337.7z M293.6,340.6c0,0-1.2-0.8-0.9-1c0.3-0.2,1.5-0.8,1.6-0.3s0.3,0.3,0.3,0.6
		C294.5,340.2,293.6,340.6,293.6,340.6L293.6,340.6z M291,342.6c0,0-0.6-0.6-0.2-1.1s0.7-0.4,1,0s0.8-0.7,1,0
		c0.2,0.6,0.1,1.9-0.4,1.6C292,342.8,291,342.6,291,342.6z M294.9,347.7c0,0,0.8,0.5,0.9,0s0.6-1.2,0.8-0.8c0.2,0.4,0.4,0.8,0,1.3
		s-1.4,0.8-1.9,0.5c-0.5-0.2-0.5-0.8-0.4-1C294.4,347.6,294.9,347.7,294.9,347.7z M288.1,346c0,0-0.5-0.8-0.3-1s1.3-0.2,1.3,0
		S288.1,346,288.1,346z M291.2,351.4c0.8,0.1,1.1-0.5,0.7-0.8c-0.4-0.2-1.4-0.5-1.4,0S291.2,351.4,291.2,351.4L291.2,351.4z
		 M299.1,350.4c0,0-0.6-0.7-0.2-1.1s0-0.1,0.6,0s1.8,0,0.9,0.4S299.1,350.4,299.1,350.4z M294.9,352.5c0,0,0.2,0,0.3-0.5
		s0.8-0.8,1.1-0.4s0,0.7-0.5,0.8C295.2,352.6,294.9,352.5,294.9,352.5z M288.3,353c0,0-1.1-0.2-1.2-0.7c-0.2-0.5,0.7-0.7,1.2-0.6
		c0.6,0,0.8,0.3,0.7,0.7C288.8,352.6,288.3,353,288.3,353z M289.8,356c0,0,0.2-1.2-0.3-1.2s-1.2,0.1-0.7,0.6s0.1,0.8,0.5,0.8
		C289.5,356.2,289.8,356,289.8,356L289.8,356z M292.5,355.5c0,0-0.9,0.3-1.2,0c-0.3-0.3-0.3-1.2,0-1s0.7,0.8,0.6,0.2s0.2-1,0.6-0.8
		C292.9,354.2,292.5,355.5,292.5,355.5L292.5,355.5z M294.2,354.7c0,0,0.2,0.7-0.3,0.9c-0.5,0.2-0.8,0.2-0.4,0.6
		c0.3,0.3,1.4,1.1,1.4,0.5c0-0.5,0.4-1.1,0-1.5S294.2,354.7,294.2,354.7z M290.9,366.7c0,0,1.3-0.4,1-0.7c-0.3-0.4-0.4-0.6-1-0.4
		s-1.4,0.8-1,1C290.2,366.7,290.9,366.7,290.9,366.7z M287.5,366.5c-0.6-0.2-0.9-0.5-0.4-0.8c0.4-0.3,1.3-0.6,1.5-0.4
		s0.6,0.3,0.4,0.8c-0.2,0.4-0.6,0.7-0.8,0.6C287.9,366.6,287.5,366.5,287.5,366.5z M285.1,366.4c0,0-0.4-0.5-0.4-1s-0.3-1,0.4-0.9
		c0.6,0,1,0.3,1,0.5s-0.1,0.7-0.3,0.9C285.5,366.2,285.1,366.4,285.1,366.4z M241.3,407.2c-0.4-0.6-0.9-0.9-1.1-0.8
		s-0.8,0.5-0.6,0.8s0.5,0.7,0.8,0.7s0.7,0.1,0.5,0.4s0.9,0.7,0.6,0.9s-1.2,0.2-1.6,0.7s0,1.7,0.3,1.7s1.2-0.1,1.4-0.4
		c0.1-0.4,0.1-0.9,0.5-0.9s0.7-0.1,0.7-0.8s-0.5-0.9-0.3-1.2c0.1-0.3,0.7-0.6,0.7-1.3s0.2-1.2-0.3-1.3s-1.3,0.1-1.2,0.4
		s0.7,0.9,0.2,1S241.3,407.2,241.3,407.2L241.3,407.2z M241.5,403.8c0,0-0.9-0.7-0.4-1.4s1.1-1.1,1.8-0.8s1.1,0.5,1,1.1
		s0.1,1.1-0.7,1.2S241.5,403.8,241.5,403.8L241.5,403.8z M243.1,389.7c0,0-0.2-0.5,0-0.8s0.2,0.2,0.7,0s0.2-1.4,0.5-1.3
		s0.7,0.3,0.7,0.1s0.9-1.1,0.9-0.1s0.1,2-0.7,2S243.1,389.7,243.1,389.7L243.1,389.7z M250.2,397.5c0,0-0.7-1.1-0.5-1.6s1-1.1,1.3-1
		s1,0.8,0.9,1.1c-0.2,0.4-0.7,0.6-0.8,0.4s-0.5-0.3-0.5,0.1s0.1,1,0,1H250.2z M265.5,391.7c-0.6-0.2-0.9-0.7-0.8-0.9
		s0.3-0.2,0.4-0.5s0.6-0.7,0.6-0.3s-0.3,0.7,0.1,0.8c0.4,0.1,0.6,0.1,0.4,0.4S265.5,391.7,265.5,391.7z M263,392.4
		c0,0-0.1-0.5,0-0.6s0.5-0.1,0.6,0.1s0.1,0.6,0,0.6C263.4,392.5,263,392.4,263,392.4z M256.3,397c0,0,0.6,0.1,0.6-0.2
		c0-0.4-0.2-0.8-0.2-1c0.1-0.2,0.4,0,0.7-0.3s0.4-0.7,0-0.8s-0.7,0.3-0.9,0.2s-0.6,0-0.5,0.3s0.2,0.6-0.1,0.7s-0.2,0.5,0,0.5
		c0.2,0,0.5,0.1,0.5,0.2S256.3,397,256.3,397L256.3,397z M258.5,397.5c0,0,0.5-0.1,0.5-0.4s-0.2-0.6-0.4-0.9s-0.6-0.3-0.6,0.2
		s0,0.9,0.2,1S258.5,397.5,258.5,397.5L258.5,397.5z M263.5,395.8c0,0,1,0.1,1.3,0s1.2-0.4,1.1-0.7s0-1.1-0.9-0.9s-1.8,0.9-1.9,0.5
		s0.6-1,0.2-1.2s-1,0-1.2-0.2s-0.6-0.7-0.9-0.2s-0.5,0.1-1,0.5s-0.4,0.8-0.1,0.9s1.3-0.4,1.3,0.1s-0.3,0.9,0.2,1
		S263.5,395.8,263.5,395.8L263.5,395.8z M287.2,384.4c0,0,0.6,0,0.7-0.4c0-0.4,0.2-1.4,0-1.6c-0.2-0.3-0.5-1-0.8-0.7
		s-0.6,0.5-0.8,0.2c-0.2-0.2-0.6-0.2-0.5,0.1c0.1,0.3,0.4,0.8,0.7,0.8s0.5,0.2,0.4,0.6S286.9,384.5,287.2,384.4L287.2,384.4z
		 M284.8,385.3c0,0-0.8,0.4-0.8-0.1s0-0.8,0.3-0.7C284.6,384.6,285.2,384.7,284.8,385.3L284.8,385.3z M290,382.6
		c0,0-0.3-0.7-0.1-0.8c0.2-0.2,0.7-0.2,0.8,0c0.1,0.2,0.3,0.7-0.1,0.8C290.2,382.7,290,382.6,290,382.6L290,382.6z M283.7,374.1
		c-0.3-0.1-0.2,0.4-0.6,0.5c-0.5,0-1.1,0.4-1.1,1s-0.2,1.2,0.2,1.3c0.4,0.1,0.9-0.1,0.8,0.3s-0.4,1.2,0.1,1.4
		c0.5,0.1,0.4-0.2,0.8-0.2c0.4,0.1,1,0.4,0.8,0c-0.1-0.4-0.6-0.2-0.7-0.7s-0.2-0.8-0.5-1.1c-0.3-0.3-0.5-0.9-0.1-0.9
		c0.3,0,1.1-0.4,0.9-0.7C283.9,374.6,283.7,374.1,283.7,374.1L283.7,374.1z M280.9,384.3c-0.3-0.6-0.4-0.9-0.1-1.2s0.9,0.1,0.9-0.5
		s-0.1-0.9,0-1.4s-0.2-1.2,0.4-1.2s0.5,0.4,0.9,0.7c0.4,0.3,0.4,0.9,0.1,1.2s-1.1,0.6-1.2,1.2c0,0.5,0.2,1.5-0.3,1.5
		S280.9,384.3,280.9,384.3L280.9,384.3z M278.7,380.5c0,0-0.1-0.6,0-0.8s0.7-0.5,0.9-0.3s0.7,0.5,0.5,0.8s-0.7,0.6-1,0.5
		S278.7,380.5,278.7,380.5z M277.3,387.6c-0.5-0.2-1-0.9-1-1.6s-0.1-2.4,0.2-2.7c0.3-0.3,0.3-0.7,0.2-1s0.3-0.9,0.7-0.9
		s1.4,0.2,1.4,0.8c0,0.6-0.2,1.6,0,1.8c0.2,0.3,1,0.1,0.8,0.6s-0.6,1.5-0.2,1.7c0.3,0.2,1.2,0,1.1,0.5s-0.7,0.7-0.9,0.7
		c-0.2,0-0.7,0-1-0.5s0-1.2-0.3-1.5c-0.4-0.2-0.9-0.1-0.8,0.5c0,0.6,0.2,1.4,0.1,1.6C277.6,387.7,277.3,387.6,277.3,387.6
		L277.3,387.6z M298.5,372.8c0,0-0.7-0.1-0.7-0.5s-0.3-0.7,0.2-0.8c0.5,0,1.2,0.4,1.1,0.6C299,372.5,298.5,372.8,298.5,372.8
		L298.5,372.8z M291.9,374.5c-0.2,0.1-0.5,0.3-0.7,0s0.3-1,0.7-1c0.4-0.1,1.2,0.1,1.2,0.4s-0.4,0.6-0.8,0.7
		C292,374.6,291.9,374.5,291.9,374.5L291.9,374.5z M292.9,376.1c0,0-0.4-0.7,0-0.7s0.8,0.4,0.8,0.2s-0.1-0.7,0.2-0.9
		s0.8-0.1,0.8,0.1s0.2,0.5,0,1s-0.4,0.9-1,0.8C293.2,376.6,292.9,376.1,292.9,376.1z"/>
	<path class="st3" d="M298.4,374c0,0,0.7,0.3,0.6,0.9c-0.2,0.6-0.4,1.2-1.1,1.4s-0.9,0.8-1.1,1.4s-0.8,0.7-1.3,0.9s-0.5,1.1-1,1.3
		c-0.5,0.2-0.7-0.2-1.1,0.5s-0.5,1.5-1.1,1.2c-0.6-0.4-0.9-1.1-0.6-1.5c0.2-0.4,0.9-0.7,0.1-1.1c-0.7-0.5-1.9-0.2-2-0.6
		s0.2-0.8-0.5-0.9s-1.5-0.8-1.8-1.4c-0.2-0.6-0.9-1.1-0.6-1.4c0.3-0.2,1.3,0,1.3-0.8c0-0.7-0.7-1.7-0.1-2c0.6-0.4,1.7-0.1,1.7,0.3
		s-0.5,1.1-0.2,1.4s-0.4,1.1-0.1,1.3s1.2,0.4,1.2,0.9s-0.2,0.9,0.3,1.2c0.5,0.3,1.2,0.5,1.4,0.8c0.2,0.3,0.3,0.8,0.5,1
		s1,0.4,1.1-0.2s0.4-1.2,1-1.3c0.5-0.1,0.9-0.5,1-0.9c0-0.3,0.8,0,0.8-0.7c0.1-0.7-0.2-1.4,0.2-1.6C297.4,374.1,298.4,374,298.4,374
		L298.4,374z M298.3,365.5l-0.3,0.9c-0.1,0.3,0,0.9,0.3,1s1,0.2,1.1,0s0-0.3-0.4-0.6s0.1-0.6-0.1-0.8S298.3,365.5,298.3,365.5z
		 M300.2,365.5c0,0,0.6,0,0.6-0.2s0-0.7-0.5-0.7s-1.1-0.3-1.3,0.1c-0.3,0.4-0.2,0.6,0.1,0.8S300.2,365.5,300.2,365.5L300.2,365.5z
		 M301.6,366.4c0,0-0.6,0.1-0.6,0.4s-0.5,0.6,0,0.9s1,0.3,1,0.7s0.4,1.2,0.2,1.4s-0.4,0.8-0.9,0.8s-1.3,0.7-1.2,1.1s0.5,0.7,1.1,0.5
		s1.3-0.2,1.5-0.8s0.5-1.8,0.2-2s0.1-0.5,0.2-0.9s-0.2-0.9-0.5-1s-0.6-0.1-0.6-0.4S301.6,366.4,301.6,366.4L301.6,366.4z
		 M301.7,364.1c0,0,0.7,0,1-0.4s0.2-1,0.6-1.1s1.2-0.1,1.2,0.5s0.7,0.2,1,0.5s0.9,0.9,0.5,1.4s-0.9,0.1-1.3,0.4s0.5,1.3-0.1,1.3
		s-1.6-0.4-1.6-0.9s-0.5-0.6-1-0.7S301.7,364.1,301.7,364.1L301.7,364.1z M309.4,370.2c-0.7-0.5-1.2-1.1-0.7-1.4s0.5-1.6,0.3-2.3
		c-0.2-0.7-0.2-2.1,0.2-2.5s0.9-0.8,0.9-1s0.7-1,0.9-0.2s0.6,1.4,0.6,1.4s-0.2,0.7-0.7,0.8s-0.6,0.7-0.2,0.8s1.2,0.7,0.5,0.9
		s-0.9,0.6-0.4,0.9s1.2,0.9,1.2,1.4s-0.6,0.9-1,0.8s-0.5,0.2-0.8,0.5S309.4,370.2,309.4,370.2L309.4,370.2z"/>
</g>
<path id="Sun" class="st5" d="M192,121c0,0-3.8,46,21,65.1c25.9,20,37.8,21.2,49.2,20.9c11.4-0.3,33.8-4.8,42-11.3
	s23.5-19.8,28-30.8s8.5-25.4,7-35.6S338,121,338,121L192,121L192,121z"/>
<path id="Innersheild" class="st6" d="M42.5,120.5h330V289c0,0-19,153-158,153s-172-123.5-172-148V120.5z"/>
<g id="Text">
	<path class="st7" d="M50.1,377.3c-0.2,0.2-0.8,0.4-0.8,0.6c0,0.4,0.2,0.8,0.4,1.2c1.5,2.8,3.1,2.8,5.5,2.1c0.4-0.2,0.8-0.2,1.2-0.4
		c0.6-0.2,1.2-0.6,1.6-1c1.6-1.5,2.2-2.9,0.9-5.3c-0.2-0.2-0.4-0.8-0.8-1c-0.2-0.2-0.6,0-0.8,0.2L50.1,377.3L50.1,377.3z
		 M45.6,373.5l0.8-0.4c0.2,0.4,0.4,1,0.8,1.4l0.2,0.2h0.2c0.2,0,0.4-0.2,0.6-0.2l7.6-4.2c0.2-0.2,0.4-0.2,0.2-0.6
		c0-0.4-0.2-0.8-0.4-1l-0.2-0.4l0.8-0.4l3.2,6l0.8,1.6c0.4,1,0.8,1.6,1.1,2.6c0.2,0.8,0.2,1.8,0.1,2.4c-0.4,1.6-1.6,2.9-3,3.5
		c-1,0.4-2,0.9-3,0.9c-1.4,0-2.8-0.5-3.9-1.7c-1-1-1.7-2.4-2.5-3.6L45.6,373.5L45.6,373.5z"/>
	<path class="st7" d="M53.7,386.6l0.8-0.4c0.4,0.4,0.9,1.6,1.5,1.4c0.2,0,0.4-0.2,0.6-0.2l7.2-4.8l0.2-0.2c0-0.2,0.2-0.2,0-0.4
		c-0.2-0.6-0.6-1-0.8-1.4l0.8-0.4l7.6,11.1l-3.6,2.5l-0.6-0.8c1.6-2.1,1.9-3.5,0-6.1c-0.2-0.4-0.6-0.8-1-1c-0.2,0-0.4-0.2-0.4,0
		c-0.2,0-0.6,0.2-0.8,0.4l-2.6,1.7c1.1,1.8,2.3,2,3.7,1.3l0.6,0.8l-4.8,3.4l-0.6-1.4c1.2-1,1.6-2.5,0.3-4.1l-3,2.1
		c-0.6,0.4-1,0.6-0.4,1.4c0.2,0.4,0.4,0.6,0.6,1c1.7,2.6,3.3,2.9,5.9,2.3l0.4,0.8l-3.8,2.3L53.7,386.6L53.7,386.6z M62.9,399.6
		l0.6-0.6c0.2,0.4,0.4,0.6,0.8,1c0.6,0.6,0.8,0.4,1.2,0l7-5.6c0,0,0.2-0.2,0-0.2V394c-0.2-0.4-0.6-1-1-1.4l0.6-0.6l5.1,6.4
		c0.2,0.2,0.4,0.4,0.4,0.6c0.8,1,1.4,2,1.7,3.4c0.2,1.2-0.2,2-1.2,2.8c-2.4,1.9-5.1-0.7-6.7-2.9l-1.2-1.6l-2.6,2.1
		c-0.2,0.2-0.4,0.4-0.4,0.6v0.2l0.2,0.2c0.2,0.2,0.4,0.4,0.4,0.8l0.4,0.6l-0.6,0.6L62.9,399.6L62.9,399.6z M71.2,400.3
		c0.4,0.4,0.4,0.6,0.6,0.8c1.4,2,2.7,2.6,4.5,1.2c1.4-1.2,1.4-2.2-0.1-3.8c-0.2-0.4-0.6-1-1-1s-0.6,0.2-0.8,0.4L71.2,400.3z
		 M85.2,406.3l1.1,1.2l-3.8,10.7c-0.4,1-0.3,1.2,0.5,2.2l-0.6,0.6l-4.9-5l0.6-0.6c0.2,0.2,0.8,0.8,1.1,1c0.4,0,0.4-0.2,0.6-0.4
		l0.7-1.9l-3.6-3.7c-0.6,0.2-1.2,0.3-1.6,0.7c-0.8,0.6-0.1,1.6,0.5,2.2l-0.6,0.6l-4-4.1l0.6-0.6c1.3,1,2.7,0.7,3.9,0.2L85.2,406.3
		L85.2,406.3z M80.8,412.7l1.6-4.3l-4.4,1.4L80.8,412.7z M91.8,420.6c0.4,0.4,0.8,0.8,1.2,1c1.5,1.2,2.7,1.5,3.9,0.3
		c1-1.2,0.5-2.2-0.7-3.4c-0.4-0.4-0.8-0.6-1.2-0.8c-0.4-0.2-0.8,0.2-1,0.4C94,418.1,91.8,420.6,91.8,420.6z M96.9,418l1,1
		c0.8,0.8,1.7,1.6,2.1,2.6s0.3,2-0.3,2.6c-1.4,1.7-3.4,0.7-5.3-0.6c1.1,1.4,1.3,2.6,0.5,3.8l-0.4,1c-0.2,0.4-0.4,0.6-0.4,1v0.2
		c0.6,1,1.6-0.1,2-0.5l0.8,0.6c-0.2,0.2-0.4,0.4-0.8,0.6c-1.2,0.8-2.6,0.3-3.9-0.7c-0.6-0.6-1.1-1.2-1.3-2c0-0.8,0.2-1.2,0.5-1.8
		L92,425c0.8-1,1.4-1.9,0.1-3.2l-0.6-0.6l-0.4-0.4l-2.5,2.9l-0.4,0.4c-0.2,0.4-0.2,0.4,0.2,0.8l0.8,0.8l0.4,0.4l-0.6,0.6l-6-5.1
		l0.6-0.6c0.2,0.2,0.6,0.4,0.8,0.8c0.8,0.6,0.8,0.4,1.4,0l5.1-5.8c0.2-0.2,0.8-0.8,0.8-1c0-0.4-0.4-0.8-0.8-1l-0.4-0.4l0.6-0.6
		L96.9,418L96.9,418z M99.8,426l3-3.4l10.5,8.1l-2.4,3.8l-0.8-0.6c0.8-1.4,1.2-3.6-0.4-5.1c-0.2-0.2-0.6-0.4-0.8-0.2
		c-0.2,0.2-0.4,0.4-0.4,0.6l-5.1,6.7c-0.4,0.4-0.4,0.6,0,1.2c0.4,0.4,0.8,0.6,1.2,1l-0.6,0.6l-6.5-4.9l0.6-0.6c0.4,0.4,1,0.6,1.4,1
		h0.6c0.2,0,0.4-0.2,0.4-0.4l5.1-6.5c0.2-0.2,0.2-0.4,0.4-0.6c0.2-0.2-0.2-0.6-0.4-0.6c-1.8-1.4-3.8-0.2-5.1,0.8
		C100.5,426.9,99.8,426,99.8,426z M115.6,434c0.2-0.2,0.4-0.6,0.2-1c-0.2-0.2-0.8-0.6-1-0.8l-0.4-0.2l0.4-0.8l5.5,3.3l-1.1,7.9
		l6.2-4.8l5.5,3.3l-0.4,0.8l-0.6-0.4c-0.4-0.2-0.8-0.6-1.2-0.4s-0.6,0.6-0.8,1l-4.1,7c0,0.2,0,0.2-0.2,0.2c-0.2,0.4,0.6,0.8,1,1.2
		l0.4,0.2l-0.4,0.8l-6.5-3.9l0.4-0.8l1,0.6c0.2,0,0.4,0.2,0.4,0.2h0.4c0.2,0,0.2-0.2,0.4-0.4l4.5-8l-9.4,7.2l-0.8-0.6l1.4-11.6
		l-3.7,6.5c-0.8,1.2-1,2.2,0.7,3.2l-0.4,0.8l-4.9-2.9l0.4-0.8c1.6,1,2.2,0.4,3-0.7L115.6,434L115.6,434z M127.4,452.7l0.4-0.8
		c0.6,0.2,1.6,1,2,0.4c0.2-0.2,0.2-0.4,0.2-0.4l3.6-7.7c0-0.2,0.2-0.2,0-0.4c0-0.2,0-0.2-0.2-0.4c-0.4-0.4-1-0.6-1.4-0.8l0.4-0.8
		l12.1,5.7l-1.6,4l-0.8-0.4c0.2-2.6-0.2-3.8-3-5.3c-0.4-0.2-0.8-0.4-1.4-0.4c-0.2,0-0.4,0-0.4,0.2c-0.2,0.2-0.4,0.4-0.4,0.8
		l-1.4,2.8c1.8,1,3,0.4,3.8-0.8l1,0.4l-2.4,5.1l-1-0.4c0.6-1.4,0-2.8-1.8-3.6l-1.6,3.2c-0.4,0.6-0.4,1,0.4,1.4
		c0.4,0.2,0.6,0.4,1,0.6c2.8,1.4,4.4,0.8,6.1-1l0.8,0.4l-2,3.8L127.4,452.7L127.4,452.7z M143.1,459.7l0.2-0.8
		c1.8,0.6,2.2,0.2,2.6-1l2.4-7.1c-0.2-0.8-0.8-1.2-1.6-1.6l0.2-0.8l4.9,1.6l4.9,9.9l1.6-4.7c0.4-1.2,0.2-2-1.4-2.6l0.2-0.8l5.3,1.8
		l-0.2,0.8c-1-0.2-1.8-0.4-2.2,0.4l-0.6,1.2l-2.8,8.1l-1.2-0.4l-5.9-11.9l-2,5.9c-0.4,1.4-0.2,2,1.4,2.8l-0.2,0.8L143.1,459.7
		L143.1,459.7z M163.1,458.3l1.4-4.2l12.9,3l-0.8,4.4l-1-0.2c0-1.6-0.2-3.8-2.4-4.4c-0.2,0-0.6,0-0.8,0.2c0,0.2-0.2,0.4-0.2,0.6
		l-2,8.3c-0.2,0.6-0.2,0.8,0.6,1c0.4,0.2,1,0.2,1.4,0.4l-0.2,0.8l-7.9-1.8l0.2-0.8c0.6,0.2,1.2,0.2,1.8,0.4c0.2,0,0.4,0,0.4-0.2
		c0.2-0.2,0.2-0.4,0.2-0.6l2-8.1c0-0.2,0.2-0.4,0.2-0.6s-0.4-0.4-0.6-0.4c-2.2-0.6-3.6,1.4-4.2,2.8L163.1,458.3L163.1,458.3z
		 M194.6,464.7c-0.2,1.2,0,2.6,0.4,3.6c0.4,1.2,1.4,1.8,3,2c2.4,0.2,3-1.8,3.4-3.2c0.2-0.6,0.2-1.2,0.4-1.8c0.2-2,0.2-5.5-3-5.7
		C195.4,459,194.8,462.5,194.6,464.7L194.6,464.7z M192.3,468.7c-1.2-1.2-1.8-3-1.6-4.4c0.2-1.6,1-3.2,2.6-4.2
		c1.4-1,3.4-1.4,5.5-1.2c2.2,0.2,3.8,0.8,5.3,2.2c1.2,1.4,1.8,3,1.8,4.7c-0.2,1.6-1.2,3.4-2.8,4.2c-1.6,1-3.4,1.4-5.5,1.2
		C195.4,470.7,193.5,469.9,192.3,468.7L192.3,468.7z"/>
	<path class="st7" d="M205.7,471.6v-0.8h1.8c0,0,0.2,0,0.2-0.2v-9.3c0-0.2,0-0.6-0.4-0.8c-0.4-0.2-0.8,0-1.2,0h-0.6v-0.8h13.1
		l0.2,4.4h-1c-0.6-2.2-1.8-3.4-4.9-3.4c-0.6,0-1.2,0-1.6,0.2c-0.2,0.2-0.2,0.6-0.2,0.8v3.4c2.2,0,2.8-0.6,3.2-2.2h1v5.9h-1
		c0-0.4-0.2-0.8-0.4-1.2c-0.6-1-1.2-1.4-2.6-1.4h-0.2v3.6c0,0.8,0,1,1.2,1.2h1.2v0.8L205.7,471.6z M231.5,463.3l-0.3-4.5l13.2-1.6
		l0.9,4.5l-1,0.2c-0.4-1.4-1.7-3.5-3.9-3.4c-0.2,0-0.6,0.2-0.6,0.4v0.8l1,8.3c0,0.6,0.2,0.8,0.8,0.8c0.4,0,1-0.2,1.4-0.2l0.2,0.8
		l-8.1,1l-0.2-0.8c0.6,0,1.2-0.2,1.8-0.3c0.2,0,0.4-0.2,0.4-0.4v-0.6l-1-8.1c0-0.2,0-0.4-0.2-0.6c0-0.2-0.4-0.2-0.8-0.2
		c-2.2,0.3-2.9,2.5-3,4.2L231.5,463.3L231.5,463.3z M245.6,457.1l7.5-1.7l0.2,0.8c-0.2,0-1.4,0.4-1.8,0.6c-0.2,0.2,0,0.6,0,0.8
		l0.7,3.3l5.3-1.3l-0.7-3.3c0-0.2,0-0.4-0.2-0.6c0,0,0-0.2-0.2-0.2c-0.4-0.2-1.6,0.2-1.8,0.2l-0.2-0.8l7.3-1.7l0.2,0.8l-1.4,0.4
		c-0.6,0.2-0.2,0.8-0.2,1.2l1.7,7.5c0,0.4,0.2,0.6,0.2,1c0,0.2,0.2,0.2,0.6,0.2c0.6,0,1-0.2,1.6-0.4l0.2,0.8l-7.5,1.7l-0.2-0.8
		c0.2,0,1-0.4,1.4-0.4c0.6-0.2,0.2-1,0.2-1.4l-0.7-3.3l-5.3,1.3l0.9,3.7c0.2,0.4,0.2,1,0.8,0.8c0.4,0,1.2-0.2,1.4-0.4l0.2,0.8
		l-7.5,1.7l-0.2-0.8l1.2-0.4c0.2,0,0.6-0.2,0.6-0.4s0-0.6-0.2-0.8l-1.9-7.9c0-0.4-0.2-0.8-0.6-0.8c-0.6,0-1,0.2-1.6,0.4L245.6,457.1
		L245.6,457.1z M266.4,464.2l-0.4-0.8c0.4-0.2,1.8-0.3,1.9-1.1c0-0.2,0-0.4-0.2-0.6l-2.6-8c0-0.2,0-0.2-0.2-0.4s-0.2-0.2-0.4-0.2
		c-0.6,0-1,0.3-1.6,0.5l-0.4-0.8l12.8-3.9l1.4,4.1l-1,0.3c-1.5-2.1-2.9-2.8-5.8-1.7c-0.4,0.2-1,0.3-1.2,0.5s-0.2,0.2-0.2,0.4
		s0,0.6,0.2,0.8l0.8,3.1c1.9-0.5,2.5-1.7,2.4-3.1l1-0.3l1.7,5.6l-1,0.3c-0.5-1.4-1.9-2.1-3.8-1.4l1,3.5c0.2,0.6,0.3,1,1.2,0.9
		c0.4,0,0.6-0.2,1-0.3c3.1-1,3.8-2.4,3.7-5.1l1-0.1l1.2,4.3L266.4,464.2L266.4,464.2z M298.5,450.8l-0.4-0.8c1.7-0.9,1.7-1.5,1-2.8
		l-3.7-6.5c-0.8-0.2-1.6-0.1-2.2,0.3l-0.4-0.8l4.4-2.6l10.6,2.8l-2.4-4.2c-0.7-1.3-1.3-1.5-2.8-0.6l-0.4-0.8l4.8-2.8l0.4,0.8
		c-0.8,0.6-1.5,1.1-1.1,2c0.2,0.4,0.4,0.8,0.5,1.2l4.3,7.5l-1,0.6l-12.8-3.3l3.2,5.4c0.7,1.3,1.3,1.7,3,0.8l0.4,0.8L298.5,450.8z
		 M310.4,435.2l-2.5-3.7l10.7-7.8l2.9,3.4l-0.8,0.6c-1.2-1.1-3.1-2.4-5-1c-0.2,0.2-0.4,0.4-0.4,0.6c0.2,0.2,0.2,0.4,0.4,0.6l5,6.7
		c0.4,0.4,0.4,0.6,1.2,0.3c0.4-0.2,0.8-0.6,1.3-1l0.6,0.6l-6.5,4.8l-0.6-0.6c0.4-0.4,0.8-0.8,1.3-1.2c0.2-0.2,0.2-0.4,0.2-0.6
		s-0.2-0.4-0.4-0.6l-5-6.7c-0.2-0.2-0.4-0.4-0.4-0.6c-0.2-0.2-0.6,0-0.8,0.2c-1.9,1.3-1.2,3.6-0.6,5L310.4,435.2L310.4,435.2z
		 M327.2,431.3l-0.6-0.6c0.4-0.4,1.5-1.2,1.3-1.8c0-0.2-0.2-0.4-0.4-0.4l-5.6-6.3l-0.2-0.2h-0.4c-0.4,0.4-0.8,0.8-1.3,1l-0.6-0.6
		l10.1-8.9l2.9,3.1l-0.8,0.6c-2.2-1.3-3.8-1.4-6.1,0.8c-0.4,0.4-0.6,0.6-0.9,1.2v0.4c0,0.2,0.4,0.4,0.6,0.6l2.1,2.3
		c1.5-1.2,1.7-2.6,0.8-3.8l0.8-0.8l3.9,4.2l-1.3,1c-1.2-1.1-2.6-1.1-4.1,0.2l2.5,2.7c0.6,0.6,0.8,0.8,1.4,0.3
		c0.2-0.2,0.6-0.4,0.8-0.6c2.3-2.1,2.4-3.8,1.4-6l0.8-0.6l2.7,3.3L327.2,431.3L327.2,431.3z M339.3,410.9c0.4-0.4,0.6-0.8,1-1.2
		c1.2-1.6,1.7-2.6,0.3-3.8c-1.2-1-2.2-0.6-3.5,0.7c-0.4,0.4-0.6,0.8-0.8,1.2c-0.2,0.4,0.2,0.6,0.4,1L339.3,410.9L339.3,410.9z
		 M336.8,405.5l1-1.2c0.8-0.8,1.6-1.6,2.7-2c1-0.4,2-0.2,2.6,0.5c1.6,1.4,0.7,3.5-0.5,5.2c1.2-1,2.4-1.2,3.9-0.5l1,0.4
		c0.4,0.2,0.6,0.4,1,0.4h0.2c1-0.6,0-1.6-0.4-1.8l0.6-0.8c0.2,0.2,0.4,0.4,0.6,0.8c0.8,1.2,0.4,2.6-0.7,3.8c-0.6,0.6-1.2,1.2-2,1.2
		c-0.8,0.2-1.2-0.2-1.8-0.6l-0.8-0.6c-1.2-0.8-2-1.5-3.2-0.1l-0.6,0.6l-0.4,0.4l2.8,2.5l0.4,0.4c0.4,0.2,0.4,0.2,0.8-0.2
		c0.2-0.2,0.4-0.6,0.8-0.8l0.4-0.4l0.6,0.6l-5.2,6l-0.6-0.6c0.2-0.2,0.4-0.6,0.6-0.8c0.6-0.8,0.4-1,0-1.4l-5.8-5.2
		c-0.2-0.2-0.8-0.8-1.2-0.8c-0.4,0-0.6,0.6-1,0.8l-0.4,0.4l-0.6-0.6L336.8,405.5L336.8,405.5z M288.8,455.6l-0.4-0.9l1.2-0.5
		c0.7-0.5,0.7-0.8,0.3-1.4l-3.4-7.3c-0.1-0.3-0.1-0.3-0.3-0.4c-0.2-0.1-0.3-0.4-0.5-0.3c-0.3,0.1-0.6,0.3-0.9,0.4l-0.5,0.2l-0.4-0.9
		l7.1-3.3l0.4,0.9l-0.6,0.3c-0.4,0.3-0.9,0.4-1.1,0.8c-0.1,0.2,0.1,0.3,0,0.5s0.1,0.3,0.2,0.5l3.6,7.4c0.1,0.3,0.3,0.6,0.6,0.6
		l0.3-0.1c0.3-0.1,0.5-0.2,0.9-0.4l0.4-0.3l0.4,0.9L288.8,455.6L288.8,455.6z M352.1,405.9l-0.8-0.6l0.8-1c0.4-0.8,0.2-1-0.4-1.4
		l-6.5-4.9c-0.2-0.2-0.2-0.2-0.4-0.2s-0.4-0.2-0.6,0s-0.4,0.6-0.6,0.8l-0.4,0.4l-0.8-0.6l4.7-6.3l0.8,0.6l-0.4,0.6
		c-0.2,0.4-0.6,0.8-0.6,1.2c0,0.2,0.2,0.2,0.2,0.4s0.2,0.2,0.4,0.4l6.7,4.9c0.2,0.2,0.6,0.4,0.8,0.2l0.2-0.2
		c0.2-0.2,0.4-0.4,0.6-0.8l0.2-0.4l0.8,0.6L352.1,405.9L352.1,405.9z M355.5,390.8c1,0.5,2.5,1.1,3.5,1c1.2,0.1,2.2-0.7,2.9-2
		c1.1-2.1-0.4-3.4-1.7-4.3c-0.4-0.4-1.1-0.7-1.7-1.1c-1.7-0.9-5-2.3-6.4,0.6C350.9,388.1,353.8,389.9,355.5,390.8L355.5,390.8z
		 M358.6,394.5c-1.6,0.5-3.4,0.6-4.9-0.3c-1.5-0.7-2.6-2.3-2.9-4.1s0-3.8,0.9-5.5c1.1-1.9,2.4-3.2,4.2-3.9c1.8-0.7,3.4-0.6,4.9,0.3
		c1.5,0.7,2.6,2.5,2.9,4.3c0.3,2,0,3.6-1.1,5.5C361.7,392.4,360.2,393.9,358.6,394.5z M364,375.8c0.2-0.4,0.4-1,0.7-1.4
		c0.9-1.8,0.9-3-0.6-3.9c-1.4-0.9-2.4-0.1-3.1,1.5l-0.7,1.4c0,0.4,0.4,0.6,0.6,0.8L364,375.8z M360.5,371.2l0.7-1.4
		c0.6-1,1.1-2,2.1-2.5c0.8-0.6,1.8-0.5,2.6-0.1c1.8,1.1,1.5,3.3,0.6,5.3c1.1-1.4,2.1-1.7,3.7-1.5l1,0.2c0.4,0,0.8,0.2,1.2,0.3h0.2
		c0.8-0.8-0.3-1.4-0.7-1.9l0.4-0.8c0.2,0.2,0.6,0.4,0.8,0.6c1.2,1.1,0.9,2.5,0,3.8c-0.4,0.8-1.1,1.4-1.7,1.5s-1.2,0.1-2-0.1l-1-0.4
		c-1.2-0.7-2.2-0.9-3.3,0.7c-0.2,0.2-0.2,0.6-0.4,0.8l-0.2,0.6l3.4,1.8c0.2,0,0.4,0.2,0.6,0.2c0.4,0,0.4,0,0.6-0.4
		c0.2-0.2,0.4-0.6,0.4-1l0.2-0.4l0.8,0.4l-3.3,6.7l-0.8-0.4c0.2-0.4,0.4-0.6,0.4-1c0.4-0.8,0.2-1-0.3-1.4l-6.7-3.7
		c-0.2-0.2-1-0.6-1.2-0.5c-0.4,0.2-0.6,0.6-0.9,1l-0.2,0.6l-0.8-0.4L360.5,371.2L360.5,371.2z"/>
	<g id="TopText">
		<path class="st7" d="M46.1,73.5v-1.6h1.6c0.5,0,0.7,0,0.9-0.2l0.2-0.2c0,0,0-0.2,0.2-0.2V54.7c0-0.5,0-1.4-0.7-1.4
			c-0.7-0.2-0.9-0.2-1.6-0.2h-0.9v-1.6h23.9l0.2,8.1H68c-1.2-4.2-3.2-6.5-8.3-6.5c-0.9,0-2.1,0-3,0.5C57,54,57,54.5,57,55.2v6.3
			c3.7,0.2,4.9-1.2,5.6-4.2h1.9v10.2h-1.9c0-0.7-0.2-1.2-0.7-1.9c-0.7-1.4-2.3-2.1-4.6-2.1H57V70c0,1.6,0,2.1,2.1,2.1H61v1.4H46.1z
			 M71.3,73.5v-1.6h1.9c1.6-0.2,1.4-0.9,1.4-2.1V54.1c-0.2-0.5-0.2-0.7-0.7-0.7c-0.7-0.2-0.9-0.2-1.6-0.2h-1.2v-1.6h14.1v1.6H84
			c-0.7,0-1.4-0.2-1.9,0.5C82,53.8,82,54,82,54.3v16.2c0,0.5,0,1.2,0.7,1.4h2.8v1.6H71.3z M87.1,65.1h2.3c1.4,3.7,4.6,7.2,9.7,7.2
			c2.1,0,4.2-1.6,4.2-3.5c0-1.4-1.6-2.8-3.5-3l-3-0.5c-2.8-0.5-4.2-0.7-6.7-2.1C88,62.1,86.9,60,86.9,58c0-4.6,4.6-7.2,10.2-7.2
			c2.5,0,5.1,0.7,7.2,1.6l1.6-1.4h1.6l0.2,7.6h-2.1c-1.4-3.7-3.7-6-8.6-6c-2.1,0-4.2,1.4-4.2,3.2c0,1.6,2.1,2.5,3.9,2.8l2.1,0.5
			c5.6,0.9,10.4,2.5,10.4,7.9c0,2.1-1.2,4.2-3.2,5.3c-1.9,1.2-4.6,1.6-7.2,1.6c-2.8,0-5.8-0.7-8.1-2.1l-2.1,1.9H87v-8.6H87.1z"/>
		<path class="st7" d="M109.1,51.5H123v1.6c-0.5,0-2.3,0-3,0.2c-0.2,0.5-0.2,0.9-0.2,1.6v6.9h8.6v-7.9c0-0.2,0-0.5-0.2-0.5
			c-0.5-0.5-2.3-0.5-2.8-0.5v-1.6H139v1.6h-2.3c-0.9,0.2-0.9,1.4-0.9,2.1v16c0,0.5,0.2,0.7,0.7,0.7c0.9,0,1.4,0.2,2.3,0.2v1.4h-13.9
			v-1.6c0.5,0,1.6,0,2.3-0.2c1.2-0.2,0.9-1.6,0.9-2.3v-5.6h-8.6v6c0,0.7,0,1.9,1.2,1.9h2.1v1.9h-13.9v-1.6h1.9
			c0.5,0,1.2-0.2,1.2-0.7s0-0.9,0.2-1.6V55c0-0.7,0.2-1.4-0.7-1.6c-0.9-0.2-1.6,0-2.5-0.2v-1.6h0.1V51.5z M154.5,65.6
			c0,1.4,0.7,3,1.6,4.2c1.2,1.2,2.3,1.9,4.2,1.9c0.7,0,2.1-0.2,2.3-0.7l-1.4-1.4c-1.9-1.9-2.5-3-3.9-5.1c-0.2-0.5-0.7-1.2-0.9-1.6
			C155.2,63.3,154.5,64.2,154.5,65.6L154.5,65.6z M164.4,55.4c0-1.4-0.9-3-2.8-3s-2.5,1.2-2.5,2.5c0,1.2,1.4,3.5,2.1,4.4
			c0.2,0,0.5,0,0.5-0.2C163.5,58.4,164.4,57.3,164.4,55.4z M165.6,61.2h9.5v1.6c-3,0-3.5,1.2-4.9,3.2c-0.7,0.9-1.2,1.9-2.1,2.8
			c0.7,0.9,2.1,2.1,3.5,2.1c1.6,0,2.5-1.4,2.8-2.5l1.6,0.2c-0.7,3.2-2.3,5.3-6.5,5.3c-1.9,0-4.2-0.9-5.6-1.9
			c-2.1,1.4-4.9,2.1-7.6,2.1c-2.1,0-4.2-0.5-5.8-1.6c-1.4-0.9-2.3-2.8-2.3-4.4s1.2-3.5,2.5-4.6c1.4-1.2,3-1.6,4.6-2.3
			c-0.9-1.4-1.4-2.8-1.4-4.4c0-3.7,3.2-5.8,7.4-5.8c1.6,0,3,0.2,4.6,0.9c1.2,0.7,2.1,2.1,2.1,3.2c0,3-3.5,4.4-6.3,5.3
			c1.6,2.3,3.2,4.4,5.1,6.7c0.7-0.9,1.9-2.1,1.9-3.2c0-1.4-1.9-1.6-3.2-1.6L165.6,61.2L165.6,61.2z M181.8,51.5h11.8v1.6
			c-0.5,0-1.2,0-1.6,0.2c-0.2,0.2-0.2,0-0.5,0.2c-0.2,0.2,0,0.5,0,0.7l0.2,0.7l4.2,11.3l3-7.9l-1.2-3.5c-0.2-0.7-0.2-0.9-0.7-1.6
			c-0.2-0.2-0.7-0.2-1.2-0.2h-0.5v-1.6H207V53c-0.5,0-1.2,0-1.6,0.2c-0.2,0-0.2,0.2-0.5,0.2c-0.2,0.5,0,0.9,0,1.2l3.9,11.1l2.8-8.1
			c0.2-0.9,0.7-1.9,0.7-2.8c0-1.4-1.9-1.9-3.2-1.9v-1.6h8.8v1.6h-0.5c-1.9,0.5-2.5,2.1-3,3.5l-6.3,17.1h-3.7L200.1,61l-4.6,12.7
			h-3.7L184.6,55c-0.2-0.5-0.2-0.9-0.7-1.4c-0.5-0.9-0.9-0.7-1.9-0.9h-0.2L181.8,51.5L181.8,51.5z M235.5,73.5v-1.6
			c0.9,0,1.4,0,2.3-0.2c0.9,0,0.9-0.9,0.9-1.6V55.4c0-2.5,0.2-2.5-2.8-2.8h-0.5V51h13.9v1.6H248c-1.6,0-1.6,0.5-1.6,1.6v15.1
			c0,1.2,0,1.9,1.6,1.9c0.7,0,0.7,0.2,1.6,0.2c3.7,0,5.6-2.5,6.7-6.7h1.9l-0.5,8.3h-22.2L235.5,73.5L235.5,73.5z M269.3,69.5
			c0,0.7,0,1.4,0.5,2.1c0.7,0.5,1.2,0.5,1.6,0.5c5.8,0,6.3-2.5,6.9-7.2c0-0.7,0.2-1.4,0.2-2.3c0-1.2,0-2.3-0.2-3.5
			c-0.7-3.9-1.9-6-6.7-6c-0.5,0-1.4,0-1.9,0.5c-0.5,0.2-0.2,0.9-0.2,1.4v14.6h-0.2L269.3,69.5z M258.5,73.5v-1.6
			c0.9,0,1.9,0,2.8-0.2c0.2,0,0.2,0,0.5-0.2c0.2,0,0.2-0.2,0.2-0.5c0.2-0.2,0-0.7,0-1.2v-16c0-0.5-0.2-0.7-0.7-0.9
			c-0.7-0.2-1.4-0.2-2.1-0.2h-0.7V51h15.2c1.9,0,4.4,0.2,6,0.7c1.4,0.5,2.8,1.4,3.9,2.3c2.3,2.3,3.2,4.9,3.2,7.6
			c0,1.9-0.5,3.9-1.2,5.6c-1.2,2.1-3.2,3.9-5.8,4.9c-2.1,0.7-6.3,0.7-8.6,0.7h-13v0.7L258.5,73.5z M350.2,73.5v-1.6
			c0.9,0,3,0.2,3.2-0.7c0.2-0.2,0-0.7,0-1.2V53.8c-0.2-0.2-0.2-0.5-0.7-0.5c-0.9-0.2-1.6-0.2-2.5-0.2v-1.6h23.6l0.2,7.9h-1.9
			c-1.6-4.4-2.5-6.3-8.1-6.3c-0.9,0-1.6,0-2.5,0.2c-0.2,0.2-0.5,0.2-0.5,0.7c-0.2,0.5-0.2,0.9-0.2,1.6v5.8c3.5,0.2,5.1-1.4,5.6-4.4
			h1.9l0.2,10.7h-1.9c-0.2-3-2.1-4.9-5.6-4.6v6.7c0,1.4,0,2.1,1.6,2.1c0.7,0,1.2,0.2,1.9,0.2c5.6,0,6.7-2.1,8.3-6.7l1.9,0.2
			l-0.5,8.1h-24.1v-0.2L350.2,73.5z M172.8,22.5h14.6v1.6c-1.2,0.2-2.5-0.2-3.2,0.5c-0.5,0.2-0.2,0.9-0.2,1.4v10.2
			c0,1.2,0,3,0.5,3.9c0.5,1.2,1.2,1.6,2.3,2.1c1.2,0.5,2.1,0.5,3.2,0.5c1.9,0,3.9-0.5,5.1-2.1c1.2-1.4,1.2-3,1.2-4.9v-7.9
			c0-1.4,0-3.2-2.1-3.7c-0.5-0.2-1.2-0.2-1.9-0.2v-1.4h10v1.6c-3.2,0-3.7,1.6-3.9,4.2v8.8c0,1.2,0,1.9-0.5,3
			c-0.7,1.9-2.1,3.5-4.2,4.2c-1.6,0.7-3.9,0.9-5.8,0.9c-2.3,0-6.7-0.5-8.8-1.6c-2.3-1.4-3-3.5-3-5.8V25.3c0-0.5,0-0.7-0.7-0.9
			c-0.7-0.2-2.5-0.2-3-0.2v-1.6L172.8,22.5L172.8,22.5z M205.2,37.4c2.3,0,4.2,1.9,4.2,3.9c0,2.1-1.9,3.9-4.2,3.9s-4.2-1.9-4.2-3.9
			C201,39,202.9,37.4,205.2,37.4z M186.4,89.7h1.6c3.5,0,5.3-1.2,5.3-4.4c0-3-1.9-3.9-4.9-3.9c-0.9,0-0.7,0-1.4,0.2
			s-0.7,1.2-0.7,1.9L186.4,89.7L186.4,89.7z M193.1,79.4c2.1,0,4,0.6,5.8,1.5c1.6,0.9,2.5,2.5,2.5,4.2c0,3.7-3.7,5.3-7.6,5.6
			c3.2,0.5,4.4,1.9,5.1,4.4l0.2,2.1c0.2,0.7,0,0.9,0.5,1.6c0,0.2,0.2,0.2,0.2,0.5c1.9,0.7,1.9-1.4,2.1-2.3h1.9c0,0.7,0,1.2-0.2,1.9
			c-0.7,2.5-3,3.5-6,3.5c-1.6,0-3.7-0.5-4.9-1.4c-0.9-0.9-1.2-2.1-1.4-3.2v-1.9c-0.2-2.5-0.5-4.4-3.7-4.6h-1.4v7.6
			c0.2,0.7,0.5,0.7,1.2,0.9h2.1v1.6h-13.9v-1.6h1.6c1.6,0,1.6-0.5,1.9-1.9v-14c0-0.5,0.2-2.1-0.2-2.5c-0.7-0.5-1.4-0.5-2.3-0.5h-0.7
			v-1.6h13.9 M200.8,79.7h13.9v1.6c-0.7,0.2-2.3-0.2-3,0.5c-0.2,0.5,0,0.9,0.2,1.2l5.8,12.7l5.1-11.3c0.2-0.5,0.2-0.7,0.2-1.2
			c0-1.4-2.1-2.1-3.5-1.9v-1.6h10v1.6c-2.5,0.2-3.7,2.3-4.6,4.2l-7.9,16.7h-3.9l-8.6-18.5c-0.5-0.9-0.9-2.1-2.3-2.3h-1.4
			C200.8,81.4,200.8,79.7,200.8,79.7z M267.3,79.3h1.4l0.2,8.8l-1.9,0.2c-0.9-3.2-3.2-7.4-7.9-7.4c-2.1,0-3.5,0.5-4.6,1.9
			s-1.4,2.5-1.9,4.4c-0.2,1.2-0.2,2.5-0.2,3.7c0,1.6,0.2,3,0.7,4.6c0.5,1.4,0.9,2.5,2.1,3.5s2.8,1.4,4.4,1.4c4.4,0,7.2-3,7.9-6.7
			l2.1,0.5c-1.4,5.6-4.9,8.1-11.3,8.1c-3.7,0-7.6-0.7-10.4-3c-2.3-2.1-3.5-5.3-3.5-8.3c0-3.2,1.2-6.5,3.9-8.8
			c2.5-2.1,6.7-2.8,10.2-2.8c2.5,0,4.2,0.2,6.3,1.4c0,0,0.2,0.2,0.5,0.2L267.3,79.3L267.3,79.3z M126.7,93.6h2.3
			c1.4,3.7,4.6,7.2,9.7,7.2c2.1,0,4.2-1.6,4.2-3.5c0-1.4-1.6-2.8-3.5-3l-3-0.5c-2.8-0.5-4.2-0.7-6.7-2.1c-2.1-1.2-3.2-3.2-3.2-5.3
			c0-4.6,4.6-7.2,10.2-7.2c2.5,0,5.1,0.7,7.2,1.6l1.6-1.4h1.9l0.2,7.6h-2.1c-1.4-3.7-3.7-6.3-8.6-6.3c-2.1,0-4.2,1.4-4.2,3.2
			c0,1.6,2.1,2.5,3.9,2.8l2.1,0.5c5.6,0.9,10.4,2.5,10.4,7.9c0,2.1-1.2,4.2-3.2,5.3c-1.9,1.2-4.6,1.6-7.2,1.6
			c-2.8,0-5.8-0.7-8.1-2.1l-1.9,2.1h-1.6L126.7,93.6L126.7,93.6z M220.3,73.5v-1.6h1.9c1.6-0.2,1.4-0.9,1.4-2.1V54.1
			c-0.2-0.5-0.2-0.7-0.7-0.7c-0.7-0.2-0.9-0.2-1.6-0.2H220v-1.6h14.1v1.6H233c-0.7,0-1.4-0.2-1.9,0.5c-0.2,0.2-0.2,0.5-0.2,0.7v16.2
			c0,0.5,0,1.2,0.7,1.4h2.8v1.6L220.3,73.5L220.3,73.5z"/>
		<path class="st7" d="M286.3,73.5v-1.6c0.9,0,1.4,0,2.3-0.2c0.9,0,0.9-0.9,0.9-1.6V55.4c0-2.5,0.2-2.5-2.8-2.8h-0.5V51h13.9v1.6
			h-1.4c-1.6,0-1.6,0.5-1.6,1.6v15.1c0,1.2,0,1.9,1.6,1.9c0.7,0,0.7,0.2,1.6,0.2c3.7,0,5.6-2.5,6.7-6.7h1.9l-0.5,8.3h-22.2v0.5
			H286.3z M309.9,73.5v-1.6h1.9c1.6-0.2,1.4-0.9,1.4-2.1V54.1c-0.2-0.5-0.2-0.7-0.7-0.7c-0.7-0.2-0.9-0.2-1.6-0.2h-1.2v-1.6h14.1
			v1.6h-1.2c-0.7,0-1.4-0.2-1.9,0.5c-0.2,0.2-0.2,0.5-0.2,0.7v16.2c0,0.5,0,1.2,0.7,1.4h2.8v1.6L309.9,73.5L309.9,73.5z M325.2,73.5
			v-1.6h1.6c0.5,0,0.7,0,0.9-0.2l0.2-0.2c0,0,0-0.2,0.2-0.2V54.7c0-0.5,0-1.4-0.7-1.4c-0.7-0.2-0.9-0.2-1.6-0.2h-0.9v-1.6h23.9
			l0.2,8.1h-1.9c-1.2-4.2-3.2-6.5-8.3-6.5c-0.9,0-2.1,0-3,0.5c-0.5,0.5-0.5,0.9-0.5,1.6v6.3c3.7,0.2,4.9-1.2,5.6-4.2h1.9v10.2h-1.9
			c0-0.7-0.2-1.2-0.7-1.9c-0.7-1.4-2.3-2.1-4.6-2.1h-0.5V70c0,1.6,0,2.1,2.1,2.1h1.9v1.4H325.2L325.2,73.5z M270.5,101.7v-1.6
			c0.9,0,3,0.2,3.2-0.7c0.2-0.2,0-0.7,0-1.2V82c-0.2-0.2-0.2-0.5-0.7-0.5c-0.9-0.2-1.6-0.2-2.5-0.2v-1.6h23.6l0.2,7.9h-1.9
			c-1.6-4.4-2.5-6.3-8.1-6.3c-0.9,0-1.6,0-2.5,0.2c-0.2,0.2-0.5,0.2-0.5,0.7c-0.2,0.5-0.2,0.9-0.2,1.6v5.8c3.5,0.2,5.1-1.4,5.6-4.4
			h1.9l0.2,10.7h-1.9c-0.2-3-2.1-4.9-5.6-4.6V98c0,1.4,0,2.1,1.6,2.1c0.7,0,1.2,0.2,1.9,0.2c5.6,0,6.7-2.1,8.3-6.7l1.9,0.2l-0.5,8.1
			h-24.1v-0.2H270.5z M149.6,101.7v-1.6c0.9,0,3,0.2,3.2-0.7c0.2-0.2,0-0.7,0-1.2V82c-0.2-0.2-0.2-0.5-0.7-0.5
			c-0.9-0.2-1.6-0.2-2.5-0.2v-1.6h23.6l0.2,7.9h-1.9c-1.6-4.4-2.5-6.3-8.1-6.3c-0.9,0-1.6,0-2.5,0.2c-0.2,0.2-0.5,0.2-0.5,0.7
			c-0.2,0.5-0.2,0.9-0.2,1.6v5.8c3.5,0.2,5.1-1.4,5.6-4.4h1.9l0.2,10.7h-2.1c-0.2-3-2.1-4.9-5.6-4.6V98c0,1.4,0,2.1,1.6,2.1
			c0.7,0,1.2,0.2,1.9,0.2c5.6,0,6.7-2.1,8.3-6.7l1.9,0.2l-0.5,8.1h-23.9v-0.2H149.6z M241.1,37.4c2.3,0,4.2,1.9,4.2,3.9
			c0,2.1-1.9,3.9-4.2,3.9s-4.2-1.9-4.2-3.9C236.9,39,238.8,37.4,241.1,37.4z M213.5,36.4h2.3c1.4,3.7,4.6,7.2,9.7,7.2
			c2.1,0,4.2-1.6,4.2-3.5c0-1.4-1.6-2.8-3.5-3l-2.8-0.7c-2.8-0.5-4.2-0.7-6.7-2.1c-2.1-1.2-3.2-3.2-3.2-5.3c0-4.6,4.6-7.2,10.2-7.2
			c2.5,0,5.1,0.7,7.2,1.6l1.6-1.4h1.6l0.2,7.6h-2.1c-1.4-3.7-3.7-6.3-8.6-6.3c-2.1,0-4.2,1.4-4.2,3.2c0,1.6,2.1,2.5,3.9,2.8l2.1,0.5
			c5.6,0.9,10.4,2.5,10.4,7.9c0,2.1-1.2,4.2-3.2,5.6c-1.9,1.2-4.6,1.6-7.2,1.6c-2.8,0-5.8-0.7-8.1-2.1l-2.1,1.9h-1.6L213.5,36.4
			L213.5,36.4z M230.7,101.7v-1.6h1.9c1.6-0.2,1.4-0.9,1.4-2.1V82.3c-0.2-0.5-0.2-0.7-0.7-0.7c-0.7-0.2-0.9-0.2-1.6-0.2h-0.9v-1.6
			h14.1v1.6h-1.2c-0.7,0-1.4-0.2-1.9,0.5c-0.2,0.2-0.2,0.5-0.2,0.7v16.2c0,0.5,0,1.2,0.7,1.4h2.8v1.6
			C245,101.7,230.7,101.7,230.7,101.7L230.7,101.7z"/>
	</g>
</g>
<g id="Bird">
	<path class="st3" d="M173.6,291.3c-3.1,0.6-3.4,2.4-3.3,4.8c0,2.4-1.1,3.9,0.8,5.9c1.9,2,2.8,1.6,2.4,3.5s-1.2,3.1-0.5,3.8
		s0.7,1.9-0.1,2.8c-0.9,1-0.5,0.9-1.6,0.7c-1.1-0.2-1.2-1.2-1-2.8s-1-1.8-2-2.2c-1-0.3-1.2-1.2-0.9-2.3s-1.9-5.5-1.7-8.5
		s-0.2-6.4-4.1-7.7c-3.1-1-13.2-11.7-18.4-15.4c-5.2-3.8-23.5-15.9-27.8-26.7c-5-12.7-1.4-20.1-2.2-22.1c-0.8-1.9-2.2-6.5-5.3-7.5
		c-3.2-1-1.8-1.3-3.2-1.3s-4.6,0.7-6.2,0.1c-1.7-0.6-2.7-2.1-5.4-2.8c-2.6-0.6-3.7-1-5.2-0.8s-6.2,0.2-9,0.9s-6,0.2-7.8-1.1
		s-3.8-2.5-3.4-5.2c0,0,2.3,0.2,3.3,0s6.2-1.6,7.9-1.8c1.7-0.2,2.8-1.6,3.6-3c0.8-1.4,3.2-5.8,4.9-7.2c1.8-1.4,4.8-3.6,7.6-4
		c2.8-0.4,8.1-0.8,10.2,0s2.8,1.4,4.9,2.8c2.1,1.3,5.8,4.7,7.7,7.8c1.9,3.2,6.8,11.4,7.9,14s2.1,5.7,4.2,6.8
		c2.1,1.1,4.2,3.2,6.2,3.5c2.1,0.3,3.8,1.1,5.7,0.5s4.2-0.9,5.2-3.6s1.8-6.3,1-8.4s-2.2-4.1-2.3-7.7c-0.1-3.6,1.2-7.2,3.1-11.8
		c1.9-4.7,8.2-14.1,10.5-17.2c2.2-3.1,12.2-15.8,14.5-16.5s2.2-0.4,2.5,0s1.2,2,0,3.6s-2.3,4.2-1.2,5.2c1.2,1.1,1.9-2.9,2.8-3.8
		c0.9-0.9,3.3-3.2,4.3-3.2c1-0.1,2.4-0.4,2.5,0.2c0.1,0.7,0.1,3.2-1.2,4.2s-1.9,3.4-1.3,3.8c0.6,0.4,1.5,0.3,2.6-0.8
		c1.1-1.2,1.6-1.3,2.5-1.2s2.2,1.1,1.8,2.4c-0.5,1.3-3.4,5.2-2.2,5.8s1.8-0.5,3.2-0.6c1.3-0.1,2.4,1.2,1.4,2.5s-1.6,3.5-0.7,3.8
		c0.9,0.2,2.5-1.5,2.8-0.2c0.3,1.2,0.7,4.2,0,4.5c-0.7,0.2-1.9,2-0.8,2.4c1.1,0.4,3.4,0.7,2.2,1.6c-1.2,0.9-1.5,1.8-1.4,2
		c0.2,0.2-0.1,0.8-0.5,0.9c-0.3,0.1-0.7,1.8-0.3,1.9c0.4,0.1,1,0.3,1.2,0c0.3-0.3,0.8-0.1,0.8,0.3c0,0.5,0.6,3.4-0.2,3.3
		s-1.4,2.4-1,2.7c0.4,0.4,1.2-0.1,1.7,0.4s-0.3,2.3,0.2,2.8s0.8,0.6,1.4-0.4c0.6-1,3.8-6,7.1-9.6c3.3-3.7,5.2-6.3,9.8-8.7
		c4.5-2.3,7-3,9.5-4.7s11.2-8,13.1-9.7c1.9-1.7,14.7-13.3,16.6-15.2s7.2-6.7,9.1-9c1.8-2.3,6.5-8.1,7.1-9.2c0.6-1,1.4-2.7,1.8-2.7
		s1.1,0.7,0.7,1.9s-2.8,4.2-2.6,4.7c0.1,0.4,1,0.5,1.5-0.2s1.5-3.2,1.8-3s0.5,2.7,0,3.5s-2.8,3-2.9,4.2c0,1.3,0.5,3.2,0,4.1
		c-0.4,0.9-2.1,3.4-3.1,4.6c-1,1.2-0.5,3.7-1,4.2s-4.5,3.7-4.8,4.9s1.2,1.8,0.3,2.9c-0.8,1.2-6.2,6.9-6.2,8.1s0.8,3.9-0.4,5
		s-2.4,1.2-3.1,3.3c-0.7,2.2-3.4,5.2-4.6,5.9c-1.2,0.7-2.4,1.1-1.8,2c0.6,0.9,1.8,2,0.7,2.9s-3.3,0.4-3.8,2.2s-0.6,4.5-1.5,6
		s-3.8,6.2-6.9,10.8c-3.2,4.6-11.7,15.1-15,19.1s-6.2,6.6-6.5,8.8c-0.2,2.2,0.5,7.8-0.2,7.9s-3.5-0.9-4.4,0s0.5,4.7-0.6,4.7
		s-4.6-2.4-8.3-2.4s-10.2-0.2-9.9,2.4s1.2,1.3,3.4,3.2s3.6,2.4,4.5,4.7s1.4,7.3,3.2,9.2c1.8,1.9,2.2,4.2,4.8,5.2s4.5,1,5.5,2.2
		s-0.3,2.6,0.7,3.5s2.6,0.7,2.5,1.9c-0.1,1.2-0.9,2.3-0.6,4.1c0.3,1.8,1.1,1.8,1.2,2.9c0.1,1.2,0.8,5.2,0,5.8s-2.1,1.4-0.7,1.8
		c1.4,0.3,2.6,2,1.7,3.1c-0.9,1.1-3.1,3.8-6.9,3.9c-3.8,0.1-6.8,0.8-7.7,0s-2.6-1.4-4.5-0.1s-2.8,0.1-4.8-0.6
		c-1.9-0.7-3.8,0.8-6.8-0.2c-3-1.1-5.1-1.8-5.2-3.6s0.5-1.6-1-2.7s-2.5-0.2-2.7-2.4C175.2,295.4,175.8,290.7,173.6,291.3"/>
	<path class="st4" d="M111.5,221.7l1.6,3.1c0,0,2.1-1.1,4.2-1.5c2.2-0.5,5.9-0.6,7.1-0.6s4.6,0.2,4.6,0.2l-1.8-3.5
		c0,0-3.6,0.2-6.9,0.6C116.9,220.2,111.5,221.7,111.5,221.7z"/>
	<ellipse class="st4" cx="90.5" cy="199.7" rx="1.7" ry="1.3"/>
</g>
</svg>
